<svg width="1920" height="1080" viewBox="0 0 1920 1080" fill="none" xmlns="http://www.w3.org/2000/svg">
<g clip-path="url(#clip0_11_8)">
<path d="M0 496L106.6 524.6C213.4 553.4 426.6 610.6 640 604C853.4 597.4 1066.6 526.6 1280 491.6C1493.4 456.6 1706.6 457.4 1813.4 457.6L1920 458V1082H1813.4C1706.6 1082 1493.4 1082 1280 1082C1066.6 1082 853.4 1082 640 1082C426.6 1082 213.4 1082 106.6 1082H0V496Z" fill="#222222"/>
<path d="M0 676L106.6 697.4C213.4 718.6 426.6 761.4 640 766.4C853.4 771.4 1066.6 738.6 1280 707C1493.4 675.4 1706.6 644.6 1813.4 629.4L1920 614V1082H1813.4C1706.6 1082 1493.4 1082 1280 1082C1066.6 1082 853.4 1082 640 1082C426.6 1082 213.4 1082 106.6 1082H0V676Z" fill="#191919"/>
<path d="M0 900L106.6 893.4C213.4 886.6 426.6 873.4 640 870C853.4 866.6 1066.6 873.4 1280 868.6C1493.4 864 1706.6 848 1813.4 840L1920 832V1082H1813.4C1706.6 1082 1493.4 1082 1280 1082C1066.6 1082 853.4 1082 640 1082C426.6 1082 213.4 1082 106.6 1082H0V900Z" fill="#101010"/>
<path d="M0 952L106.6 937.4C213.4 922.6 426.6 893.4 640 881C853.4 868.6 1066.6 873.4 1280 891C1493.4 908.6 1706.6 939.4 1813.4 954.6L1920 970V1082H1813.4C1706.6 1082 1493.4 1082 1280 1082C1066.6 1082 853.4 1082 640 1082C426.6 1082 213.4 1082 106.6 1082H0V952Z" fill="black"/>
</g>
<defs>
<clipPath id="clip0_11_8">
<rect width="1920" height="1080" fill="white"/>
</clipPath>
</defs>
</svg>
