<svg width="1920" height="1080" viewBox="0 0 1920 1080" fill="none" xmlns="http://www.w3.org/2000/svg">
<g clip-path="url(#clip0_15_29)">
<path d="M1920 584L1813.4 555.4C1706.6 526.6 1493.4 469.4 1280 476C1066.6 482.6 853.4 553.4 640 588.4C426.6 623.4 213.4 622.6 106.6 622.4L0 622V-2H106.6C213.4 -2 426.6 -2 640 -2C853.4 -2 1066.6 -2 1280 -2C1493.4 -2 1706.6 -2 1813.4 -2H1920V584Z" fill="#222222"/>
<path d="M1920 404L1813.4 382.6C1706.6 361.4 1493.4 318.6 1280 313.6C1066.6 308.6 853.4 341.4 640 373C426.6 404.6 213.4 435.4 106.6 450.6L0 466V-2H106.6C213.4 -2 426.6 -2 640 -2C853.4 -2 1066.6 -2 1280 -2C1493.4 -2 1706.6 -2 1813.4 -2H1920V404Z" fill="#191919"/>
<path d="M1920 180L1813.4 186.6C1706.6 193.4 1493.4 206.6 1280 210C1066.6 213.4 853.4 206.6 640 211.4C426.6 216 213.4 232 106.6 240L0 248V-2H106.6C213.4 -2 426.6 -2 640 -2C853.4 -2 1066.6 -2 1280 -2C1493.4 -2 1706.6 -2 1813.4 -2H1920V180Z" fill="#101010"/>
<path d="M1920 128L1813.4 142.6C1706.6 157.4 1493.4 186.6 1280 199C1066.6 211.4 853.4 206.6 640 189C426.6 171.4 213.4 140.6 106.6 125.4L0 110V-2.00002H106.6C213.4 -2.00002 426.6 -2.00002 640 -2.00002C853.4 -2.00002 1066.6 -2.00002 1280 -2.00002C1493.4 -2.00002 1706.6 -2.00002 1813.4 -2.00002H1920V128Z" fill="black"/>
</g>
<defs>
<clipPath id="clip0_15_29">
<rect width="1920" height="1080" fill="white" transform="matrix(-1 0 0 -1 1920 1080)"/>
</clipPath>
</defs>
</svg>
